# This file uses centimeters as units for non-parametric coordinates.

mtllib Rock4_LowPolyMesh.mtl
g default
v -0.452013 1.530651 0.123057
v -0.098959 1.541779 -0.030775
v 0.261828 1.502422 0.105509
v 0.122916 1.284404 0.350206
v -0.258292 1.347279 0.351421
v 0.287483 1.593425 -0.352860
v 0.312909 1.534823 -0.042701
v 0.273223 1.557920 -0.509964
v 0.109437 1.502632 -0.647138
v -0.506896 1.434333 -0.395598
v -0.090450 1.338018 -0.809458
v -0.570424 1.309391 -0.662951
v -0.703765 1.320053 -0.091602
v -0.684815 1.308081 -0.388362
v -0.805248 1.117113 -0.655816
v -0.816253 1.067220 -0.002647
v -0.889359 0.807815 0.391771
v -0.807846 0.806107 0.459804
v -0.531249 0.938322 0.357600
v -0.275851 0.738744 0.487959
v 0.027477 0.480946 0.679954
v -0.443919 0.397923 0.630004
v -0.783818 0.631906 0.520589
v -0.024527 1.152647 0.428691
v 0.070787 0.786991 0.500915
v 0.319810 0.856412 0.348505
v 0.531302 0.665984 0.411076
v 0.295687 0.556886 0.599662
v 0.408512 -0.079233 0.749179
v -0.571649 0.012581 0.597393
v -0.996539 0.367161 0.254151
v -0.943993 0.570254 0.362960
v -0.770958 0.151442 0.445972
v -0.870812 -0.161448 0.044157
v -0.910243 -0.034385 0.166775
v -1.469357 0.111474 -0.199536
v -1.107591 0.312344 0.079230
v -1.163099 0.396529 -0.120726
v -0.979563 0.450840 -0.078954
v -0.900768 0.751220 -0.184485
v -1.111831 0.807363 -0.246913
v -1.293179 0.739807 -0.251680
v -1.462847 0.742866 -0.391782
v -1.499109 0.437317 -0.423806
v -1.500007 0.200251 -0.342936
v -1.448585 0.061929 -0.796916
v -1.447582 0.080814 -0.527331
v -1.320628 0.113457 -1.074466
v -1.103535 0.049167 -1.222521
v -0.985194 0.300064 -1.288906
v -0.390435 0.205826 -1.211923
v -0.831537 0.046276 -1.200546
v 0.115439 0.210587 -0.979543
v -0.203538 0.877625 -0.960988
v -0.588371 0.880511 -1.012538
v -0.811049 0.553356 -1.152986
v -0.304940 0.421904 -1.116609
v -1.065132 0.421238 -1.225380
v -1.077543 0.653575 -0.984305
v -1.240761 0.656664 -0.794652
v -1.067806 0.997286 -0.616774
v -1.368373 0.838826 -0.533181
v -1.390057 0.565902 -0.680943
v -1.441451 0.366748 -0.672915
v -1.085684 0.895695 -0.396295
v -0.927162 0.916365 -0.362003
v 0.440926 1.047205 0.119966
v 0.524952 1.122254 -0.151867
v 0.473036 1.085685 -0.434389
v 0.250857 0.781927 -0.684203
v 0.656619 0.550080 -0.574683
v 0.573995 0.307110 -0.723866
v 0.223359 0.447166 -0.818983
v 0.555056 0.158874 -0.765346
v -0.222838 0.199687 -1.132045
v -1.066066 -0.178923 -0.447654
v -1.039911 -0.116759 -0.090416
v -0.377899 0.039578 -1.048119
v -0.155476 -0.192555 -0.753918
v 0.317750 -0.061657 -0.779617
v 0.613848 0.055206 -0.661913
v 1.050707 0.206752 0.134090
v 0.848580 0.574303 0.191324
v 0.625590 0.985880 -0.205869
v 0.628174 0.887765 -0.361902
v 1.038372 -0.044909 -0.100670
v 0.816244 -0.112640 0.668214
v 0.888293 -0.322614 0.381297
v 0.924365 0.079486 0.538265
v 0.770044 0.547019 0.341150
v 0.527394 0.599558 0.497800
v 0.819010 0.323207 -0.327546
v 0.847454 0.476255 -0.167348
v 0.708214 0.219452 -0.509304
v 0.842536 -0.026547 -0.294169
v 0.706726 -0.192844 -0.333708
v 0.416193 -0.164906 -0.502698
v 0.939742 -0.295002 0.014156
v 0.525632 -0.249829 0.637604
v -0.076133 -0.200739 0.441899
v -0.461431 -0.081517 0.540800
v -0.628781 -0.251985 0.022361
v -0.321706 -0.295796 -0.638340
v -0.772267 -0.277369 -0.475577
v -0.313496 -0.323215 -0.030738
v -0.045422 -0.331295 -0.230240
v 0.458788 -0.335499 -0.098790
v 0.573686 -0.323622 0.127372
v -0.000873 -0.352601 0.136486
vt 0.887872 0.091164
vt 0.890293 0.112768
vt 0.880303 0.110699
vt 0.859094 0.118974
vt 0.871260 0.130175
vt 0.788123 0.265855
vt 0.770979 0.244107
vt 0.810125 0.234922
vt 0.835428 0.198756
vt 0.823054 0.160784
vt 0.837046 0.153876
vt 0.848070 0.173470
vt 0.882376 0.202825
vt 0.868529 0.170104
vt 0.851660 0.221529
vt 0.927230 0.145675
vt 0.955225 0.155314
vt 0.945349 0.182352
vt 0.926093 0.162503
vt 0.890874 0.124414
vt 0.883002 0.133141
vt 0.916431 0.133449
vt 0.906542 0.102188
vt 0.909196 0.144847
vt 0.923268 0.101075
vt 0.914169 0.175153
vt 0.899447 0.183659
vt 0.883890 0.147336
vt 0.900116 0.188621
vt 0.866763 0.139873
vt 0.897920 0.224208
vt 0.911750 0.190052
vt 0.866633 0.239789
vt 0.893313 0.249338
vt 0.855577 0.249861
vt 0.779517 0.197910
vt 0.800889 0.193164
vt 0.825448 0.219639
vt 0.821238 0.137452
vt 0.785199 0.132010
vt 0.796335 0.097743
vt 0.783136 0.331398
vt 0.791909 0.311088
vt 0.826723 0.350965
vt 0.790933 0.366437
vt 0.840591 0.127779
vt 0.873438 0.091853
vt 0.823126 0.096727
vt 0.859273 0.083859
vt 0.840588 0.071822
vt 0.804678 0.061157
vt 0.813747 0.043064
vt 0.855456 0.053013
vt 0.858838 0.061675
vt 0.900039 0.083724
vt 0.887882 0.050046
vt 0.933857 0.108465
vt 0.923569 0.083113
vt 0.910450 0.063447
vt 0.868329 0.037527
vt 0.833628 0.398283
vt 0.834588 0.376363
vt 0.799488 0.419301
vt 0.798484 0.401214
vt 0.811117 0.412701
vt 0.883023 0.269570
vt 0.743346 0.240602
vt 0.765758 0.276887
vt 0.833346 0.262678
vt 0.834246 0.318230
vt 0.802339 0.298746
vt 0.745164 0.229402
vt 0.757353 0.210293
vt 0.808116 0.288157
vt 0.825646 0.272708
vt 0.847010 0.299925
vt 0.764032 0.200922
vt 0.862518 0.283186
vt 0.920271 0.247142
vt 0.928122 0.213636
vt 0.912016 0.265256
vt 0.898441 0.283626
vt 0.906196 0.281890
vt 0.854055 0.310787
vt 0.851902 0.324285
vt 0.897613 0.311416
vt 0.904776 0.302233
vt 0.886189 0.334923
vt 0.917354 0.332373
vt 0.860442 0.352039
vt 0.866461 0.383817
vt 0.862473 0.373344
vt 0.886389 0.350913
vt 0.657480 0.088983
vt 0.631029 0.099775
vt 0.648670 0.068246
vt 0.660224 0.065245
vt 0.880827 0.366835
vt 0.879179 0.384120
vt 0.920262 0.354385
vt 0.941014 0.314169
vt 0.956075 0.203626
vt 0.959641 0.277437
vt 0.957812 0.310969
vt 0.906725 0.367070
vt 0.939256 0.361279
vt 0.682573 0.188338
vt 0.676054 0.221093
vt 0.655593 0.219026
vt 0.708780 0.188990
vt 0.700626 0.223819
vt 0.634509 0.210290
vt 0.624532 0.193026
vt 0.847241 0.034196
vt 0.634118 0.138970
vt 0.624909 0.172626
vt 0.617358 0.139266
vt 0.622210 0.126408
vt 0.776546 0.087148
vt 0.762832 0.158669
vt 0.757178 0.149172
vt 0.749796 0.120296
vt 0.714053 0.135300
vt 0.726074 0.113330
vt 0.763011 0.077337
vt 0.746062 0.050416
vt 0.771405 0.056920
vt 0.957252 0.339273
vt 0.719247 0.045681
vt 0.726424 0.072281
vt 0.911323 0.381978
vt 0.678571 0.081874
vt 0.691477 0.061077
vt 0.710142 0.080107
vt 0.661299 0.123310
vt 0.700053 0.116050
vt 0.671160 0.134801
vt 0.717423 0.158320
vt 0.681471 0.166907
vt 0.719116 0.176803
vt 0.756414 0.178618
vt 0.730258 0.183226
vn -0.781507 0.307979 -0.542582
vn -0.804720 0.366276 0.467192
vn -0.620102 0.744706 -0.246751
vn -0.441304 0.796887 -0.412581
vn -0.269265 0.849931 0.452894
vn -0.470018 0.740896 0.479746
vn -0.046594 0.983230 0.176320
vn -0.342008 0.909144 -0.237671
vn -0.735778 0.669750 -0.100327
vn -0.771663 0.568544 0.285121
vn -0.341070 0.450416 0.825104
vn -0.844381 0.445712 0.297258
vn -0.334160 0.543298 0.770172
vn -0.724688 0.178518 0.665551
vn -0.655694 -0.457051 0.600975
vn -0.621789 -0.237912 0.746174
vn -0.820960 -0.096912 0.562702
vn -0.514077 0.348357 0.783819
vn -0.200225 0.535377 0.820537
vn -0.570649 0.431325 0.698798
vn -0.960180 0.088842 0.264881
vn -0.819899 0.430897 0.376953
vn -0.946018 0.198485 0.256229
vn -0.931475 0.089778 0.352554
vn -0.782161 0.537029 0.315950
vn -0.904355 0.361079 0.227518
vn -0.222756 0.626724 0.746724
vn -0.746482 0.624448 0.229847
vn -0.108160 0.368347 0.923376
vn -0.351696 0.199893 0.914523
vn 0.043992 0.249600 0.967349
vn 0.156796 0.416933 0.895311
vn 0.499120 0.400847 0.768245
vn 0.309406 0.623318 -0.718152
vn 0.199968 0.483769 -0.852045
vn -0.291535 0.737415 -0.609283
vn 0.278338 0.320594 -0.905399
vn 0.535655 0.254449 -0.805189
vn -0.456399 0.723567 -0.517832
vn -0.637090 0.431843 -0.638457
vn -0.096898 0.532488 -0.840873
vn -0.536734 0.564808 -0.626824
vn 0.011093 0.445446 -0.895240
vn 0.264117 0.278190 -0.923500
vn 0.225952 -0.071160 -0.971536
vn -0.067554 0.053327 -0.996289
vn -0.620022 0.427843 -0.657665
vn -0.885169 0.243237 -0.396625
vn -0.746605 -0.388625 -0.539955
vn -0.793160 -0.425629 0.435589
vn -0.749722 -0.661098 0.029440
vn -0.615083 -0.741805 -0.267207
vn -0.285145 -0.765333 -0.577024
vn 0.421976 -0.087533 -0.902371
vn 0.484889 0.302857 -0.820464
vn 0.385983 -0.275288 -0.880473
vn 0.494145 0.471607 0.730348
vn 0.494297 0.703567 0.510552
vn 0.716758 0.309703 -0.624774
vn 0.556047 0.610505 -0.564000
vn 0.567797 0.782741 0.254800
vn 0.455174 0.882249 -0.120224
vn 0.853349 0.502989 0.137103
vn 0.715949 0.471484 0.514898
vn -0.010697 0.195117 0.980722
vn -0.193945 0.117199 0.973987
vn 0.264152 0.370177 0.890614
vn 0.449543 0.623466 0.639689
vn 0.439337 0.457530 0.773078
vn 0.840923 0.540306 0.030297
vn 0.784531 0.404562 -0.469937
vn 0.817149 0.513868 0.261164
vn 0.631495 0.472909 0.614468
vn 0.900079 0.336992 -0.276212
vn 0.986430 0.127684 0.103207
vn 0.685384 0.297896 -0.664460
vn 0.528111 -0.066839 -0.846541
vn 0.557009 0.251941 -0.791371
vn 0.870255 0.183106 -0.457305
vn 0.302796 -0.644380 -0.702203
vn 0.598670 -0.462609 -0.653901
vn 0.825771 -0.060823 -0.560717
vn 0.965424 -0.161625 -0.204533
vn 0.738195 0.152779 0.657059
vn -0.308665 -0.317910 0.896470
vn 0.076807 -0.041093 0.996199
vn 0.648806 -0.290056 0.703505
vn 0.753461 -0.231157 -0.615519
vn 0.644805 -0.763313 -0.039756
vn -0.352036 -0.930850 -0.097924
vn -0.465478 -0.846034 0.259916
vn -0.009784 -0.784231 -0.620392
vn 0.146662 -0.769035 -0.622153
vn -0.205547 -0.850800 0.483622
vn -0.131495 -0.902626 0.409847
vn -0.115642 -0.984593 0.131161
vn -0.061899 -0.982974 0.173005
vn 0.007923 -0.900385 0.435022
vn 0.528278 -0.810441 0.253196
vn 0.001469 -0.998494 0.054842
vn 0.457087 -0.739459 -0.494239
vn 0.216054 -0.886259 -0.409714
vn 0.096898 -0.975305 -0.198474
vn 0.070056 -0.849990 -0.522119
vn 0.098384 -0.971271 -0.216688
vn -0.080741 -0.941266 -0.327871
vn -0.207458 -0.953039 0.220630
vn -0.152057 -0.969496 -0.192238
vn -0.433430 -0.820985 0.371648
s 1
g rock4_LowPolyMesh
usemtl initialShadingGroup
f 63/1/1 43/2/2 62/3/3
f 61/4/4 62/3/3 65/5/5
f 1/6/6 2/7/7 10/8/8
f 1/9/6 10/10/8 14/11/9 13/12/10
f 19/13/11 13/12/10 16/14/12
f 19/13/11 5/15/13 1/9/6 13/12/10
f 37/16/14 35/17/15 33/18/16 31/19/17
f 42/20/18 41/21/19 65/5/5
f 65/5/5 62/3/3 43/2/2 42/20/18
f 38/22/20 42/20/18 43/2/2 44/23/21
f 38/22/20 39/24/22 41/21/19 42/20/18
f 38/22/20 44/23/21 45/25/23
f 39/24/22 31/19/17 32/26/24
f 39/24/22 38/22/20 37/16/14 31/19/17
f 17/27/25 16/14/12 40/28/26
f 18/29/27 19/13/11 16/14/12 17/27/25
f 40/28/26 39/24/22 32/26/24 17/27/25
f 41/21/19 39/24/22 40/28/26
f 66/30/28 65/5/5 41/21/19 40/28/26
f 16/14/12 13/12/10 66/30/28 40/28/26
f 20/31/29 19/13/11 18/29/27 23/32/30
f 23/32/30 18/29/27 17/27/25 32/26/24
f 23/32/30 32/26/24 31/19/17 33/18/16
f 24/33/31 20/31/29 25/34/32
f 4/35/33 5/15/13 24/33/31
f 5/15/13 19/13/11 20/31/29 24/33/31
f 10/8/8 2/7/7 9/36/34
f 10/8/8 9/36/34 11/37/35 12/38/36
f 12/39/36 11/40/35 54/41/37
f 11/42/35 9/43/34 70/44/38 54/45/37
f 66/30/28 13/12/10 14/11/9 15/46/39
f 15/46/39 14/11/9 10/10/8 12/39/36
f 61/4/4 60/47/40 63/1/1 62/3/3
f 65/5/5 66/30/28 15/46/39 61/4/4
f 15/46/39 12/39/36 54/41/37 55/48/41
f 59/49/42 60/47/40 61/4/4
f 56/50/43 57/51/44 51/52/45 50/53/46
f 56/50/43 55/48/41 54/41/37 57/51/44
f 58/54/47 56/50/43 50/53/46
f 44/23/21 43/2/2 63/1/1 64/55/48
f 55/48/41 56/50/43 58/54/47 59/49/42
f 59/49/42 58/54/47 48/56/49 64/55/48
f 64/55/48 63/1/1 60/47/40 59/49/42
f 59/49/42 61/4/4 15/46/39 55/48/41
f 36/57/50 35/17/15 37/16/14
f 36/57/50 37/16/14 38/22/20 45/25/23
f 45/25/23 44/23/21 64/55/48 47/58/51
f 36/57/50 45/25/23 47/58/51
f 46/59/52 47/58/51 64/55/48
f 46/59/52 64/55/48 48/56/49
f 49/60/53 48/56/49 58/54/47 50/53/46
f 53/61/54 54/45/37 70/44/38 73/62/55
f 51/63/45 57/64/44 75/65/56
f 75/65/56 57/64/44 54/45/37 53/61/54
f 4/35/33 24/33/31 25/34/32 26/66/57
f 3/67/58 2/7/7 1/6/6 5/68/13
f 5/15/13 4/35/33 3/69/58
f 69/70/59 70/44/38 9/43/34 8/71/60
f 2/7/7 3/67/58 7/72/61 6/73/62
f 6/74/62 7/75/61 68/76/63
f 8/77/60 9/36/34 2/7/7 6/73/62
f 68/76/63 69/70/59 8/71/60 6/74/62
f 67/78/64 68/76/63 7/75/61 3/69/58
f 3/69/58 4/35/33 26/66/57 67/78/64
f 21/79/65 20/31/29 23/32/30 22/80/66
f 28/81/67 25/34/32 20/31/29 21/79/65
f 28/81/67 27/82/68 26/66/57 25/34/32
f 91/83/69 27/82/68 28/81/67
f 69/70/59 68/76/63 84/84/70 85/85/71
f 67/78/64 26/66/57 27/82/68 83/86/72
f 83/86/72 84/84/70 68/76/63 67/78/64
f 83/86/72 27/82/68 91/83/69 90/87/73
f 93/88/74 85/85/71 84/84/70 83/86/72
f 93/88/74 83/86/72 82/89/75
f 71/90/76 70/44/38 69/70/59 85/85/71
f 74/91/77 53/61/54 73/62/55 72/92/78
f 73/62/55 70/44/38 71/90/76 72/92/78
f 71/90/76 85/85/71 93/88/74 92/93/79
f 80/94/80 53/95/54 74/96/77 81/97/81
f 94/98/82 81/99/81 74/91/77 72/92/78
f 94/98/82 72/92/78 71/90/76 92/93/79
f 92/93/79 93/88/74 82/89/75 86/100/83
f 90/87/73 91/83/69 28/81/67 89/101/84
f 82/89/75 83/86/72 90/87/73 89/101/84
f 30/102/85 22/80/66 23/32/30 33/18/16
f 29/103/86 87/104/87 89/101/84
f 21/79/65 22/80/66 30/102/85 29/103/86
f 29/103/86 89/101/84 28/81/67 21/79/65
f 95/105/88 94/98/82 92/93/79 86/100/83
f 98/106/89 86/100/83 82/89/75 89/101/84
f 76/107/90 47/108/51 46/109/52
f 76/107/90 77/110/91 36/111/50 47/108/51
f 76/107/90 46/109/52 48/112/49 49/113/53
f 49/60/53 50/53/46 51/52/45 52/114/92
f 78/115/93 52/116/92 51/117/45 75/118/56
f 29/119/86 30/120/85 101/121/94 100/122/95
f 105/123/96 109/124/97 100/122/95
f 29/119/86 100/122/95 99/125/98
f 88/126/99 87/127/87 29/119/86 99/125/98
f 98/106/89 89/101/84 87/104/87 88/128/99
f 98/129/89 88/126/99 99/125/98 108/130/100
f 99/125/98 100/122/95 109/124/97 108/130/100
f 81/99/81 94/98/82 95/105/88 96/131/101
f 96/131/101 95/105/88 86/100/83 98/106/89
f 97/132/102 80/94/80 81/97/81 96/133/101
f 97/132/102 96/133/101 107/134/103
f 96/133/101 98/129/89 108/130/100 107/134/103
f 79/135/104 80/94/80 97/132/102
f 79/135/104 78/115/93 75/118/56 53/95/54
f 79/135/104 53/95/54 80/94/80
f 79/135/104 97/132/102 107/134/103 106/136/105
f 106/136/105 107/134/103 108/130/100 109/124/97
f 103/137/106 79/135/104 106/136/105 105/123/96
f 105/123/96 106/136/105 109/124/97
f 105/123/96 100/122/95 101/121/94 102/138/107
f 78/115/93 79/135/104 103/137/106 104/139/108
f 34/140/109 30/120/85 33/141/16 35/142/15
f 102/138/107 101/121/94 30/120/85 34/140/109
f 34/140/109 35/142/15 36/111/50 77/110/91
f 34/140/109 77/110/91 76/107/90 104/139/108
f 104/139/108 102/138/107 34/140/109
f 104/139/108 103/137/106 105/123/96 102/138/107
f 104/139/108 76/107/90 49/113/53 52/116/92
f 104/139/108 52/116/92 78/115/93
