# This file uses centimeters as units for non-parametric coordinates.

mtllib Rock5_LowPolyMesh.mtl
g default
v -0.385356 2.036351 1.029371
v 0.149816 2.266016 0.531233
v 1.272983 2.272317 0.426849
v 0.984365 1.816801 0.788133
v -1.048459 2.050306 0.971758
v -1.541020 2.071494 1.248345
v -1.764581 2.315426 0.876781
v -1.250023 2.264951 0.732708
v -0.807641 2.425351 0.536607
v -0.930728 2.645359 0.135984
v -1.279408 2.598327 0.008813
v -1.603931 2.309012 0.408773
v -0.470673 2.541584 0.153080
v -1.912617 2.080469 1.229770
v -1.729060 1.878259 1.277767
v -1.891782 2.239281 0.662719
v -2.112051 2.099958 0.842843
v -1.912439 2.092588 -0.153313
v -2.086834 2.068359 0.349997
v -1.037561 2.424259 -0.311336
v -1.374114 2.305605 -0.169262
v -1.437305 1.962659 -0.556625
v -0.791912 1.940383 -0.851347
v -0.194565 1.896966 -1.331805
v 0.157533 2.028339 -1.078023
v 0.424257 1.689200 -1.120354
v -0.093739 1.578316 -1.325131
v 0.494229 2.239887 -0.573596
v 0.938889 1.917396 -0.885022
v 0.651243 1.839388 -1.020718
v 1.357206 2.258247 -0.378244
v 1.541149 2.246746 -0.003665
v 1.581132 1.861469 -0.319412
v 1.111658 1.764895 -0.756979
v 1.591585 1.671095 -0.090649
v 1.552781 1.996458 0.247740
v 1.224089 1.484209 -0.114249
v 0.472432 1.480976 0.619881
v 0.165172 2.306540 -0.206587
v -0.451601 2.055332 -0.789242
v 0.954628 2.232569 -0.139632
v 0.421111 2.250145 0.122869
v 0.781258 1.742931 -0.931472
v -0.410011 1.457731 -1.094563
v -0.805505 1.652015 -0.781593
v -1.616162 1.554526 -0.317641
v -1.701980 1.462844 -0.097999
v -2.022507 1.855486 0.154809
v -2.120697 1.849878 0.699734
v -2.003058 1.800936 0.872309
v -1.577341 1.628571 1.032589
v -1.322154 1.536804 0.876438
v -0.951705 1.716588 0.910796
v -0.643665 1.513757 0.854170
v 0.194078 1.303543 0.697738
v -0.102066 0.865033 1.207786
v -0.527614 1.082737 1.156814
v -0.967268 0.843993 1.282285
v -0.515549 0.580414 1.478770
v 0.722969 1.356280 0.179204
v 0.530534 1.307890 -0.334169
v 0.734832 1.492630 -0.588228
v -0.217578 1.336137 -0.977480
v -0.680647 1.396539 -0.699611
v -1.419765 1.266848 -0.011200
v -1.678243 1.582492 0.435427
v -1.285061 1.310274 0.545164
v -0.209964 1.094767 -0.601649
v -0.206353 0.612573 -0.609719
v 0.453319 0.761679 -0.380962
v 0.380068 1.126141 -0.333651
v 0.468693 1.161044 0.175245
v -1.519456 1.010341 -0.005614
v -1.676304 0.668061 0.137143
v -1.546136 0.354611 0.280549
v -1.552153 0.048713 0.451394
v -1.545702 -0.274129 0.947639
v -1.667977 -0.338654 0.899440
v -1.905581 -0.198082 0.197788
v -1.931486 -0.132198 -0.279127
v -1.720880 -0.019761 -0.677708
v -1.245506 0.019828 -1.030600
v -1.183628 -0.192013 -1.115927
v -0.405494 -0.097414 -1.041363
v 0.267295 -0.149865 -1.140071
v 0.812693 -0.298390 -1.105575
v 1.004079 -0.185431 -1.080362
v 0.584809 0.384127 -0.899829
v 0.626207 0.523579 -0.629433
v 1.516542 -0.123312 -0.790806
v 1.543743 0.165330 -0.384966
v 1.613977 0.060225 -0.053284
v 1.694477 -0.176383 -0.163714
v 1.652297 -0.420167 -0.704756
v 1.742322 -0.474298 -0.458370
v 1.141627 -0.204316 0.491470
v 1.171864 0.116203 0.290672
v 0.949506 0.417052 -0.176956
v 0.719641 0.069342 0.629158
v 0.665440 -0.098352 0.655045
v 0.050731 0.557854 1.095325
v -0.212392 0.406454 1.180952
v 0.389401 0.379824 0.775466
v 0.143173 0.032558 0.879638
v -0.397452 -0.191012 1.140956
v -0.581753 0.112789 1.097191
v 0.299150 0.852009 0.682477
v 0.523945 0.787021 0.211816
v 0.417181 0.589157 0.665029
v 0.643572 0.519429 0.191950
v 0.692683 0.613163 -0.188401
v 0.857601 0.491153 -0.387794
v 1.062150 0.278959 -0.613251
v 0.249100 0.600846 -0.691333
v 0.036136 0.356494 -0.754844
v -0.417586 0.197249 -0.802258
v -0.739677 0.457096 -0.665284
v -0.989742 0.257034 -0.781050
v -1.471364 0.221893 -0.459918
v -1.584935 0.172062 -0.052112
v -1.478915 0.455432 -0.134102
v -0.822273 0.096449 -0.924062
v -1.284905 0.513136 -0.373517
v -1.393455 0.751712 -0.174122
v -0.697340 1.118159 -0.508147
v -1.278307 0.954539 -0.209255
v -1.357463 0.951744 0.470274
v -1.409832 0.689124 0.457260
v -1.064690 0.603665 0.911288
v -0.730889 1.108233 0.947179
v -0.975585 0.900440 0.935996
v -1.042511 0.573015 1.071874
v -0.867308 0.701932 1.418162
v -0.799472 0.363052 1.050233
v -1.008573 0.278692 0.843822
v -1.414420 0.387603 0.432385
v -1.376025 0.166051 0.491383
v -1.057325 0.120109 0.817976
v -0.771940 -0.067287 1.073216
v -0.959654 -0.409126 1.202151
v -0.733533 -0.376362 1.239510
v -1.447219 -0.639638 0.849641
v -1.678381 -0.373210 -0.619352
v -1.577672 -0.225448 -0.823785
v -1.643663 -0.578681 -0.374022
v -1.452375 -0.677361 -0.080160
v -0.354617 -0.468588 -0.881127
v 0.345561 -0.526023 -0.838172
v 0.858706 -0.545424 -0.844225
v 1.242587 -0.657542 -0.650898
v 1.342381 -0.460852 -0.892099
v -1.011973 -0.319719 -0.977162
v -1.250245 -0.452018 -0.693610
v -0.458295 -0.574598 0.902549
v -0.871524 -0.659501 0.699544
v -0.413695 -0.444004 1.061204
v -0.123373 -0.345571 0.942225
v 0.331892 -0.348830 0.629239
v 0.876732 -0.446941 0.457020
v 1.104884 -0.580403 0.087498
v 1.371234 -0.294773 0.086823
v 0.655871 -0.674278 -0.305450
v -0.117495 -0.733052 -0.155432
v -0.097232 -0.570458 0.613771
v 0.197534 -0.484217 0.549380
vt 0.537404 0.523821
vt 0.521421 0.507911
vt 0.531755 0.492174
vt 0.419651 0.436236
vt 0.432941 0.429942
vt 0.437009 0.450744
vt 0.425932 0.458432
vt 0.545474 0.492432
vt 0.513863 0.486657
vt 0.543301 0.475844
vt 0.557295 0.512965
vt 0.565880 0.527131
vt 0.557431 0.534023
vt 0.556045 0.485233
vt 0.448829 0.440069
vt 0.440798 0.470256
vt 0.435710 0.495747
vt 0.485470 0.442495
vt 0.505786 0.424470
vt 0.527738 0.443932
vt 0.493683 0.462098
vt 0.470811 0.419819
vt 0.461635 0.453460
vt 0.481765 0.493751
vt 0.478479 0.472208
vt 0.484178 0.415927
vt 0.560988 0.552287
vt 0.574089 0.538011
vt 0.580202 0.517065
vt 0.381540 0.418312
vt 0.369052 0.419762
vt 0.382841 0.401319
vt 0.579370 0.493233
vt 0.567803 0.466614
vt 0.543960 0.444648
vt 0.523828 0.417323
vt 0.455721 0.350752
vt 0.467556 0.358788
vt 0.458987 0.373701
vt 0.406799 0.388570
vt 0.408475 0.409930
vt 0.405578 0.419340
vt 0.356566 0.437732
vt 0.368458 0.436424
vt 0.354104 0.457169
vt 0.368820 0.444237
vt 0.543870 0.550042
vt 0.551309 0.558577
vt 0.365312 0.474891
vt 0.364223 0.464013
vt 0.380386 0.460757
vt 0.523218 0.534262
vt 0.393893 0.463696
vt 0.393281 0.438660
vt 0.384626 0.486865
vt 0.398522 0.481146
vt 0.493229 0.524766
vt 0.435527 0.535763
vt 0.424318 0.561199
vt 0.397083 0.508870
vt 0.464856 0.571226
vt 0.461465 0.588423
vt 0.441671 0.590650
vt 0.460168 0.415174
vt 0.494758 0.576203
vt 0.473064 0.593644
vt 0.477026 0.412055
vt 0.505418 0.564173
vt 0.489061 0.555556
vt 0.518809 0.403799
vt 0.494865 0.409272
vt 0.431688 0.372355
vt 0.438227 0.383661
vt 0.455909 0.547113
vt 0.479434 0.543114
vt 0.468131 0.378324
vt 0.512548 0.373102
vt 0.509200 0.388764
vt 0.491178 0.355844
vt 0.508474 0.355316
vt 0.459053 0.533642
vt 0.436691 0.520868
vt 0.724040 0.389838
vt 0.694350 0.391145
vt 0.688181 0.377709
vt 0.711705 0.371784
vt 0.704607 0.360600
vt 0.693628 0.357860
vt 0.480919 0.533404
vt 0.726203 0.354406
vt 0.737269 0.367042
vt 0.719375 0.342848
vt 0.691616 0.337686
vt 0.747824 0.340463
vt 0.735102 0.335953
vt 0.705030 0.318005
vt 0.729883 0.323867
vt 0.740256 0.324327
vt 0.714425 0.296879
vt 0.727093 0.295083
vt 0.745632 0.306930
vt 0.738043 0.277345
vt 0.615252 0.572128
vt 0.627192 0.575217
vt 0.634092 0.587895
vt 0.619211 0.595692
vt 0.645153 0.582070
vt 0.641494 0.567575
vt 0.754931 0.354430
vt 0.628108 0.558117
vt 0.632506 0.537393
vt 0.619172 0.548106
vt 0.447917 0.391694
vt 0.654970 0.565184
vt 0.654319 0.536430
vt 0.673590 0.534410
vt 0.660761 0.572622
vt 0.613266 0.478475
vt 0.619609 0.459654
vt 0.628855 0.469520
vt 0.627724 0.484487
vt 0.612346 0.528922
vt 0.624004 0.512915
vt 0.603448 0.513165
vt 0.611457 0.504081
vt 0.653650 0.513434
vt 0.649026 0.484035
vt 0.666870 0.516189
vt 0.640623 0.477913
vt 0.418566 0.427211
vt 0.413544 0.488496
vt 0.693497 0.411629
vt 0.706878 0.429247
vt 0.689082 0.423567
vt 0.409057 0.453833
vt 0.663918 0.475048
vt 0.653961 0.470407
vt 0.641659 0.459740
vt 0.662623 0.450145
vt 0.679695 0.453844
vt 0.673969 0.426983
vt 0.673107 0.415424
vt 0.671409 0.409594
vt 0.659421 0.418542
vt 0.658845 0.423063
vt 0.674829 0.398868
vt 0.674482 0.383600
vt 0.655146 0.404984
vt 0.650874 0.445399
vt 0.632324 0.447678
vt 0.638566 0.439362
vt 0.632285 0.431533
vt 0.623561 0.434731
vt 0.640132 0.411963
vt 0.614111 0.410837
vt 0.653896 0.390504
vt 0.646300 0.413856
vt 0.642339 0.392217
vt 0.649398 0.375577
vt 0.624953 0.385797
vt 0.595614 0.475219
vt 0.597905 0.458231
vt 0.593982 0.498719
vt 0.585124 0.501998
vt 0.590893 0.590605
vt 0.598954 0.614626
vt 0.587624 0.623994
vt 0.582575 0.608964
vt 0.585137 0.583038
vt 0.591208 0.558666
vt 0.596112 0.531306
vt 0.584775 0.481355
vt 0.580667 0.469085
vt 0.604189 0.441739
vt 0.610625 0.412762
vt 0.575754 0.454288
vt 0.632779 0.380084
vt 0.672927 0.359067
vt 0.683066 0.335677
vt 0.689553 0.315453
vt 0.712076 0.287599
vt 0.696867 0.296980
vt 0.712428 0.270762
vt 0.725427 0.267222
vt 0.502546 0.323199
vt 0.493708 0.333546
vt 0.482820 0.321463
vt 0.483020 0.309614
vt 0.512439 0.351996
vt 0.515240 0.336721
vt 0.533879 0.363896
vt 0.536324 0.343104
vt 0.562195 0.371265
vt 0.564410 0.354097
vt 0.595349 0.377522
vt 0.590063 0.368046
vt 0.615397 0.371380
vt 0.603616 0.357842
vt 0.623919 0.348239
vt 0.622141 0.361920
vt 0.599770 0.402506
vt 0.574107 0.436811
vt 0.564068 0.319558
vt 0.605661 0.293864
vt 0.631166 0.294712
vt 0.619771 0.333141
vt 0.615689 0.271641
vt 0.591187 0.280092
vt 0.591177 0.271179
vt 0.606808 0.267041
vt 0.641106 0.366799
vt 0.652898 0.359618
vt 0.530535 0.316317
vt 0.516329 0.294622
vt 0.680677 0.293402
vt 0.675091 0.315034
vt 0.665080 0.339392
vt 0.572648 0.287007
vt 0.559249 0.284992
vt 0.576863 0.270414
vt 0.554402 0.277495
vt 0.530002 0.280941
vn 0.006416 0.903697 0.428124
vn 0.079075 0.848881 0.522636
vn 0.018348 0.996065 0.086711
vn 0.739373 -0.660362 0.131340
vn 0.827334 -0.249849 -0.503085
vn 0.571256 0.811395 0.123715
vn 0.789558 -0.282124 0.544981
vn -0.375208 0.923988 -0.073928
vn 0.179646 0.977221 -0.112993
vn -0.070169 0.820997 -0.566604
vn -0.332144 0.941948 0.049136
vn -0.360742 0.932226 -0.028649
vn -0.069973 0.952034 0.297883
vn -0.467301 0.709813 -0.527063
vn 0.311312 0.840045 -0.444307
vn 0.308890 0.776334 0.549448
vn 0.389729 0.098736 0.915621
vn 0.033994 0.947410 -0.318211
vn 0.050549 0.840726 -0.539096
vn -0.055147 0.897465 -0.437625
vn 0.106456 0.968849 -0.223603
vn 0.324973 0.695528 -0.640807
vn 0.041164 0.984444 -0.170808
vn 0.172079 0.832684 0.526333
vn 0.146993 0.989127 0.004459
vn 0.296598 0.654203 -0.695736
vn -0.600210 0.206277 0.772786
vn -0.903423 0.356571 0.238083
vn -0.764845 0.621124 -0.170932
vn -0.821481 -0.541917 -0.177469
vn -0.727147 0.456433 -0.512762
vn -0.469597 0.154565 -0.869246
vn -0.468839 0.310078 -0.827068
vn -0.186737 0.552212 -0.812522
vn 0.229240 -0.396706 -0.888861
vn -0.465758 -0.508379 -0.724307
vn -0.545005 -0.473576 -0.691878
vn -0.732004 -0.663088 -0.156476
vn -0.795777 -0.598663 0.091338
vn -0.603360 -0.737402 0.303635
vn 0.343493 0.418134 0.840938
vn -0.358956 -0.340024 0.869215
vn -0.021303 -0.752359 0.658409
vn 0.173660 0.480179 0.859809
vn 0.070191 -0.656043 0.751453
vn -0.579840 -0.804541 0.128453
vn -0.030345 -0.411930 0.910710
vn 0.120586 0.431652 0.893944
vn 0.302153 -0.618725 0.725178
vn 0.492242 -0.866601 0.081864
vn 0.607995 -0.399194 -0.686285
vn 0.386184 -0.735046 -0.557287
vn 0.338992 -0.857268 -0.387526
vn 0.388112 -0.592473 -0.705936
vn -0.495058 -0.426129 -0.757187
vn 0.453952 -0.851814 0.261423
vn 0.405064 -0.865172 -0.295638
vn 0.098833 -0.811494 -0.575943
vn 0.947261 -0.236263 0.216508
vn 0.471965 -0.004201 0.881607
vn 0.465920 0.391622 0.793442
vn 0.662927 -0.039382 0.747648
vn 0.830911 0.215151 0.513126
vn 0.795076 0.357368 0.490044
vn 0.676761 0.156490 0.719378
vn 0.685878 -0.309429 -0.658653
vn 0.928058 0.323347 0.184812
vn 0.664478 0.647890 0.372435
vn 0.562401 0.416315 0.714414
vn 0.632309 0.452631 -0.628737
vn 0.654234 0.756292 -0.000193
vn 0.495157 0.706519 0.505619
vn 0.479160 0.848387 0.225047
vn 0.493976 0.845878 -0.201194
vn 0.753391 0.556278 0.350653
vn 0.658427 0.750689 -0.054230
vn 0.435827 0.734096 -0.520728
vn 0.626209 0.431213 -0.649551
vn 0.133889 0.592226 -0.794570
vn 0.398771 0.811804 -0.426562
vn -0.083541 0.674208 -0.733801
vn 0.052493 0.287032 -0.956482
vn -0.142543 0.556331 -0.818644
vn -0.439365 -0.603783 -0.665135
vn 0.152458 -0.284434 -0.946495
vn -0.547512 0.745670 -0.379745
vn -0.841716 0.538536 -0.038644
vn -0.893084 0.177590 -0.413356
vn -0.550914 0.439362 -0.709546
vn -0.042010 0.545865 -0.836819
vn -0.205539 0.387895 -0.898494
vn 0.049433 0.576085 -0.815894
vn -0.246232 0.694846 -0.675692
vn -0.397813 -0.081396 -0.913849
vn -0.565326 0.087128 -0.820253
vn -0.629380 0.212870 -0.747374
vn -0.766425 -0.547583 -0.335775
vn 0.043435 0.034844 0.998448
vn 0.124832 0.643102 0.755537
vn -0.513254 0.498263 0.698788
vn -0.689356 -0.315432 0.652143
vn -0.958485 0.281521 -0.045315
vn -0.983030 0.168164 0.073306
vn -0.846016 0.214413 0.488143
vn -0.672824 0.396825 0.624370
vn -0.659475 0.592676 0.462415
vn -0.277209 -0.051639 0.959421
vn -0.779724 -0.403279 0.478953
vn -0.829922 -0.031192 0.557007
vn 0.044083 -0.037585 0.998321
vn 0.338491 -0.286242 0.896375
vn -0.387815 -0.619310 0.682682
vn -0.796244 0.100176 0.596624
vn -0.929226 0.211511 0.302990
vn -0.741682 -0.025516 0.670266
vn -0.584082 0.518342 0.624636
vn -0.669804 0.625441 0.400233
vn -0.450143 0.472970 0.757411
vn -0.523386 0.372074 0.766569
vn -0.014001 -0.270651 0.962576
vn -0.699448 -0.074327 0.710808
vn -0.278382 0.439568 0.853981
vn 0.310633 -0.128362 0.941823
vn -0.167385 -0.301622 0.938619
vn -0.692286 0.563555 -0.450718
vn -0.983462 0.098405 -0.152049
vn -0.339046 0.634093 -0.694963
vn -0.202004 -0.211675 -0.956236
vn 0.330573 0.425873 -0.842231
vn 0.805300 -0.196092 -0.559500
vn 0.378564 -0.487490 -0.786793
vn 0.039602 -0.209527 -0.977001
vn -0.081948 -0.033823 -0.996063
vn -0.029974 0.076286 -0.996635
vn -0.575522 -0.368338 -0.730138
vn -0.676541 -0.567814 -0.468912
vn -0.948093 -0.285948 0.139120
vn -0.873825 -0.318272 0.367604
vn -0.347119 -0.889329 -0.297663
vn 0.058303 -0.165003 0.984568
vn 0.441053 -0.197164 0.875556
vn 0.342132 -0.142258 0.928821
vn 0.558967 -0.227628 0.797334
vn 0.931545 -0.159777 0.326643
vn 0.659205 -0.462768 0.592701
vn 0.722880 -0.683399 0.102026
vn 0.161872 -0.980611 -0.110455
vn -0.049023 -0.872578 -0.486008
vn -0.054417 -0.867315 -0.494776
vn -0.056580 -0.842841 -0.535180
vn -0.070115 -0.819091 -0.569362
vn -0.102505 -0.909249 -0.403434
vn -0.333815 -0.919154 0.209103
vn -0.202409 -0.975088 -0.090744
vn 0.028437 -0.997145 -0.069956
vn 0.007633 -0.987682 0.156291
vn 0.157050 -0.931815 0.327194
vn 0.357856 -0.614458 0.703122
vn 0.497931 -0.429213 0.753552
vn 0.059219 -0.998217 0.007473
vn 0.252047 -0.915802 0.312696
vn 0.189019 -0.834785 0.517112
vn 0.330495 -0.476765 0.814536
vn 0.194828 -0.941642 0.274504
vn 0.178655 -0.925971 0.332655
s 1
g rock5_LowPolyMesh
usemtl initialShadingGroup
f 8/1/1 9/2/2 10/3/3
f 35/4/4 33/5/5 32/6/6 36/7/7
f 11/8/8 10/3/3 13/9/9 20/10/10
f 8/1/1 10/3/3 11/8/8 12/11/11
f 16/12/12 7/13/13 8/1/1 12/11/11
f 12/11/11 11/8/8 20/10/10 21/14/14
f 31/15/15 32/6/6 33/5/5
f 3/16/16 4/17/17 36/7/7 32/6/6
f 28/18/18 25/19/19 40/20/20 39/21/21
f 39/21/21 40/20/20 20/10/10 13/9/9
f 31/15/15 29/22/22 28/18/18 41/23/23
f 3/16/16 32/6/6 31/15/15 41/23/23
f 2/24/24 13/9/9 10/3/3 9/2/2
f 2/24/24 3/16/16 42/25/25
f 42/25/25 39/21/21 13/9/9 2/24/24
f 42/25/25 3/16/16 41/23/23
f 41/23/23 28/18/18 39/21/21 42/25/25
f 25/19/19 28/18/18 29/22/22 30/26/26
f 14/27/27 7/13/13 16/12/12 17/28/28
f 17/28/28 16/12/12 19/29/29
f 48/30/30 19/31/29 18/32/31
f 18/33/31 21/14/14 22/34/32
f 23/35/33 22/34/32 21/14/14
f 21/14/14 20/10/10 40/20/20 23/35/33
f 24/36/34 23/35/33 40/20/20 25/19/19
f 24/37/34 27/38/35 44/39/36
f 18/33/31 19/29/29 16/12/12 12/11/11
f 18/33/31 12/11/11 21/14/14
f 18/32/31 22/40/32 46/41/37
f 48/30/30 18/32/31 46/41/37 47/42/38
f 17/43/28 19/31/29 48/30/30 49/44/39
f 14/45/27 17/43/28 49/44/39 50/46/40
f 6/47/41 7/13/13 14/27/27 15/48/42
f 6/49/41 15/50/42 51/51/43
f 15/50/42 14/45/27 50/46/40 51/51/43
f 5/52/44 9/2/2 8/1/1
f 5/52/44 8/1/1 7/13/13 6/47/41
f 52/53/45 51/51/43 66/54/46
f 49/44/39 48/30/30 47/42/38 66/54/46
f 51/51/43 50/46/40 49/44/39 66/54/46
f 5/55/44 6/49/41 51/51/43 52/53/45
f 52/53/45 53/56/47 5/55/44
f 1/57/48 2/24/24 9/2/2 5/52/44
f 4/17/17 3/16/16 2/24/24 1/57/48
f 38/58/49 4/59/17 1/60/48
f 37/61/50 35/62/4 36/63/7 4/59/17
f 29/22/22 31/15/15 33/5/5 34/64/51
f 34/65/51 33/66/5 35/62/4 37/61/50
f 43/67/52 30/26/26 29/22/22 34/64/51
f 43/68/52 34/65/51 37/61/50 62/69/53
f 27/70/35 24/36/34 25/19/19 26/71/54
f 26/71/54 25/19/19 30/26/26
f 26/71/54 30/26/26 43/67/52
f 23/72/33 24/37/34 44/39/36 45/73/55
f 45/73/55 46/41/37 22/40/32 23/72/33
f 37/61/50 4/59/17 38/58/49 60/74/56
f 62/69/53 37/61/50 60/74/56 61/75/57
f 63/76/58 62/77/53 61/78/57
f 26/79/54 43/80/52 62/77/53 63/76/58
f 44/39/36 27/38/35 26/79/54 63/76/58
f 72/81/59 60/74/56 38/58/49 55/82/60
f 55/83/60 56/84/61 101/85/62 107/86/63
f 109/87/64 107/86/63 101/85/62 103/88/65
f 71/89/66 61/75/57 60/74/56 72/81/59
f 108/90/67 72/91/59 55/83/60 107/86/63
f 108/90/67 107/86/63 109/87/64 110/92/68
f 110/92/68 109/87/64 103/88/65 99/93/69
f 70/94/70 108/90/67 110/92/68 111/95/71
f 110/92/68 99/93/69 97/96/72 98/97/73
f 112/98/74 111/95/71 110/92/68 98/97/73
f 98/97/73 97/96/72 92/99/75 91/100/76
f 113/101/77 91/100/76 90/102/78
f 113/101/77 112/98/74 98/97/73 91/100/76
f 88/103/79 89/104/80 112/105/74 113/106/77
f 111/107/71 112/105/74 89/104/80 70/108/70
f 70/94/70 71/109/66 72/91/59 108/90/67
f 70/108/70 89/104/80 88/103/79 114/110/81
f 69/111/82 70/108/70 114/110/81 115/112/83
f 45/73/55 44/39/36 63/76/58 64/113/84
f 71/114/66 70/108/70 69/111/82 68/115/85
f 63/116/58 61/117/57 71/114/66 68/115/85
f 119/118/86 120/119/87 121/120/88 123/121/89
f 69/111/82 115/112/83 116/122/90 117/123/91
f 117/123/91 116/122/90 122/124/92 118/125/93
f 125/126/94 68/115/85 69/111/82 117/123/91
f 117/123/91 118/125/93 119/118/86 123/121/89
f 126/127/95 125/126/94 117/123/91
f 125/126/94 64/128/84 63/116/58 68/115/85
f 117/123/91 123/121/89 124/129/96 126/127/95
f 47/42/38 46/41/37 65/130/97
f 1/60/48 5/55/44 53/56/47 54/131/98
f 54/131/98 55/82/60 38/58/49 1/60/48
f 57/132/99 54/133/98 130/134/100
f 52/53/45 66/54/46 67/135/101
f 54/131/98 53/56/47 52/53/45 67/135/101
f 46/41/37 45/73/55 64/113/84 65/130/97
f 65/136/97 64/128/84 125/126/94 126/127/95
f 67/135/101 66/54/46 47/42/38 65/130/97
f 65/136/97 126/127/95 73/137/102
f 74/138/103 73/137/102 126/127/95 124/129/96
f 124/129/96 123/121/89 121/120/88 74/138/103
f 127/139/104 67/140/101 65/136/97 73/137/102
f 131/141/105 67/140/101 127/139/104
f 131/141/105 130/134/100 54/133/98 67/140/101
f 57/132/99 56/84/61 55/83/60 54/133/98
f 58/142/106 57/132/99 130/134/100 131/141/105
f 133/143/107 57/132/99 58/142/106
f 132/144/108 58/142/106 131/141/105 129/145/109
f 132/144/108 133/143/107 58/142/106
f 59/146/110 56/84/61 57/132/99 133/143/107
f 102/147/111 101/85/62 56/84/61 59/146/110
f 59/146/110 133/143/107 132/144/108 134/148/112
f 128/149/113 127/139/104 73/137/102 74/138/103
f 129/145/109 131/141/105 127/139/104 128/149/113
f 75/150/114 74/138/103 121/120/88 120/119/87
f 136/151/115 128/149/113 74/138/103 75/150/114
f 137/152/116 136/151/115 75/150/114 76/153/117
f 138/154/118 137/152/116 76/153/117 77/155/119
f 106/156/120 102/147/111 59/146/110 134/148/112
f 135/157/121 134/148/112 132/144/108 129/145/109
f 139/158/122 105/159/123 106/156/120
f 106/156/120 134/148/112 135/157/121
f 135/157/121 138/154/118 139/158/122 106/156/120
f 129/145/109 128/149/113 136/151/115 135/157/121
f 135/157/121 136/151/115 137/152/116 138/154/118
f 140/160/124 139/158/122 138/154/118 77/155/119
f 81/161/125 80/162/126 120/119/87 119/118/86
f 119/118/86 118/125/93 82/163/127 81/161/125
f 83/164/128 82/163/127 118/125/93 122/124/92
f 87/165/129 88/103/79 113/106/77 90/166/78
f 87/165/129 90/166/78 94/167/130 151/168/131
f 86/169/132 87/165/129 151/168/131
f 88/103/79 87/165/129 86/169/132 85/170/133
f 115/112/83 114/110/81 88/103/79 85/170/133
f 116/122/90 115/112/83 85/170/133 84/171/134
f 122/124/92 116/122/90 84/171/134 83/164/128
f 144/172/135 143/173/136 80/162/126 81/161/125
f 144/172/135 81/161/125 82/163/127 83/164/128
f 120/119/87 80/162/126 79/174/137
f 76/153/117 75/150/114 120/119/87 79/174/137
f 79/174/137 78/175/138 77/155/119 76/153/117
f 79/174/137 80/162/126 143/173/136 145/176/139
f 139/158/122 140/160/124 141/177/140 105/159/123
f 104/178/141 103/88/65 101/85/62 102/147/111
f 104/178/141 102/147/111 106/156/120 105/159/123
f 100/179/142 99/93/69 103/88/65 104/178/141
f 96/180/143 97/96/72 99/93/69 100/179/142
f 96/180/143 92/99/75 97/96/72
f 90/102/78 91/100/76 92/99/75 93/181/144
f 93/181/144 92/99/75 96/180/143 161/182/145
f 95/183/146 94/184/130 90/102/78 93/181/144
f 150/185/147 151/186/131 94/187/130 95/188/146
f 86/189/132 151/186/131 150/185/147 149/190/148
f 85/191/133 86/189/132 149/190/148 148/192/149
f 84/193/134 85/191/133 148/192/149 147/194/150
f 83/195/128 84/193/134 147/194/150 152/196/151
f 144/197/135 83/195/128 152/196/151 153/198/152
f 145/199/139 143/200/136 144/197/135 153/198/152
f 142/201/153 140/160/124 77/155/119 78/175/138
f 142/201/153 78/175/138 79/174/137 146/202/154
f 79/174/137 145/176/139 146/202/154
f 153/198/152 152/196/151 147/194/150 163/203/155
f 155/204/156 142/205/153 146/206/154 163/203/155
f 146/206/154 145/199/139 153/198/152 163/203/155
f 140/207/124 142/205/153 155/204/156 154/208/157
f 156/209/158 141/210/140 140/207/124 154/208/157
f 105/159/123 141/177/140 156/211/158 157/212/159
f 163/203/155 147/194/150 148/192/149 162/213/160
f 162/213/160 150/185/147 95/188/146 160/214/161
f 148/192/149 149/190/148 150/185/147 162/213/160
f 160/215/161 161/182/145 96/180/143 159/216/162
f 95/183/146 93/181/144 161/182/145 160/215/161
f 100/179/142 104/178/141 158/217/163
f 158/217/163 159/216/162 96/180/143 100/179/142
f 104/178/141 105/159/123 157/212/159 158/217/163
f 164/218/164 163/203/155 162/213/160 165/219/165
f 154/208/157 155/204/156 163/203/155 164/218/164
f 157/220/159 156/209/158 154/208/157 164/218/164
f 165/219/165 158/221/163 157/220/159 164/218/164
f 165/219/165 162/213/160 160/214/161 159/222/162
f 165/219/165 159/222/162 158/221/163
