# This file uses centimeters as units for non-parametric coordinates.

mtllib Rock2_LowPolyMesh.mtl
g default
v -0.199753 1.525801 0.724687
v -0.034228 1.406745 0.656064
v 0.147703 1.726779 0.473766
v 0.374705 1.725243 0.405622
v 0.331457 1.423051 0.480081
v 0.541960 1.339431 0.430530
v 0.862487 1.621443 0.260406
v 0.685858 1.780929 0.267063
v 0.446507 1.921722 0.049385
v 0.678346 1.956321 -0.245949
v 0.838987 1.930497 -0.329592
v 1.016442 1.510536 0.070948
v 0.005862 1.771662 0.167804
v -0.512826 1.804444 0.186823
v -0.516022 1.634371 0.497256
v -0.161855 1.707826 0.615268
v -0.620273 1.513752 0.520553
v -0.529997 1.303008 0.676221
v -0.803938 1.154669 0.557293
v -0.940204 1.249434 0.413668
v -0.863134 1.674715 0.199902
v -0.249453 1.067160 0.573392
v -0.070139 1.149850 0.579145
v 0.206995 0.648633 0.570795
v -0.055064 0.869170 0.525686
v 0.228573 1.092733 0.373116
v 0.504873 1.087283 0.323233
v 0.667348 0.892999 0.195054
v 0.568396 0.456684 0.243346
v 0.384957 0.776772 0.339604
v 0.176804 0.874319 0.382054
v 1.037316 1.292357 -0.046280
v 0.918519 1.108744 -0.021662
v 1.031239 1.323630 -0.713172
v 0.947979 1.516652 -0.768352
v 0.852028 1.836968 -0.564314
v 0.508955 1.941512 -0.541426
v 0.116566 1.755749 -0.129312
v -0.129454 1.671611 -0.347014
v 0.249249 1.797712 -0.509893
v 0.695833 1.486248 -0.885420
v 0.499555 1.377687 -0.920732
v 0.755906 1.104965 -0.710609
v 0.647830 1.672525 -0.717770
v 0.398417 1.840867 -0.717610
v 0.091095 1.635175 -0.923750
v 0.163667 1.430653 -1.020511
v 0.376625 1.723155 -0.835099
v -0.245330 1.504784 -0.707785
v -0.500279 1.712544 -0.011629
v -0.792890 1.640920 -0.053661
v -0.724413 1.472819 -0.456233
v -0.258080 1.318434 -0.799091
v -0.676452 1.213237 -0.569205
v -0.882740 1.418355 -0.111412
v -0.989288 1.342704 0.146366
v -0.817220 1.130719 -0.179980
v -0.744185 1.055510 -0.448566
v -0.708873 0.841948 -0.607781
v -0.302055 1.028714 -0.761332
v 0.308172 1.043610 -0.881585
v -0.846411 1.058724 0.065516
v -0.729768 0.813660 -0.090764
v -0.734972 0.839403 -0.300254
v -0.707948 0.611581 -0.397573
v -0.859235 0.356683 -0.202557
v -0.751215 0.371177 0.163286
v -0.927903 0.285004 -0.063158
v -0.983107 0.222033 -0.245013
v -0.919417 0.245162 -0.432116
v -0.674159 0.718804 0.178189
v -0.832488 1.021927 0.275088
v -0.758985 0.561966 -0.563876
v 0.578273 0.814886 -0.499336
v 0.700800 0.831006 -0.120455
v 0.550267 0.488018 -0.192682
v 0.344388 0.757853 -0.759671
v -0.190479 0.812837 -0.860814
v -0.549341 0.467584 -0.778261
v -0.074101 0.348901 -0.734364
v 0.246384 0.593853 -0.801887
v -0.686987 0.226760 -0.675888
v -0.592949 -0.071830 -0.556018
v -0.121014 0.123602 -0.659821
v -0.534983 -0.283575 -0.520056
v -0.523101 -0.425131 -0.409218
v -0.787870 -0.398294 -0.241551
v -0.981798 -0.013258 -0.139303
v -0.815461 -0.056284 -0.362306
v -0.948241 -0.290422 -0.101397
v -0.803812 0.155168 0.236378
v -0.706457 0.112470 0.416692
v -0.640762 0.279951 0.435442
v -0.642332 0.386064 0.364744
v -0.442941 0.778640 0.597187
v 0.212248 0.326015 0.716613
v -0.363454 0.552362 0.634512
v -0.465943 0.116993 0.594235
v 0.140373 0.018253 0.730352
v 0.230870 0.169960 0.750818
v 0.314322 -0.013814 0.668650
v 0.603170 0.055791 0.301199
v 0.558902 0.274228 0.220863
v 0.410414 0.554467 -0.553363
v 0.276360 0.344707 -0.527616
v 0.479107 -0.101386 -0.430889
v 0.671998 -0.004416 -0.059485
v 0.097636 -0.524135 -0.452994
v -0.177067 -0.219952 -0.619957
v -0.759518 -0.395168 0.138590
v -0.580981 -0.389903 0.331834
v -0.111711 -0.038510 0.638243
v 0.102829 -0.335211 0.537408
v -0.124225 -0.260989 0.579356
v -0.341342 -0.374930 0.398909
v 0.282163 -0.374199 0.421436
v 0.551745 -0.183947 0.348616
v 0.601471 -0.234073 0.176828
v 0.269376 -0.500356 -0.247241
v -0.839635 -0.383376 -0.103132
v -0.454827 -0.425229 -0.100001
v -0.082922 -0.420858 0.017775
vt 0.409819 0.922533
vt 0.402322 0.910022
vt 0.424940 0.898788
vt 0.435785 0.900884
vt 0.440007 0.919023
vt 0.393659 0.930276
vt 0.379533 0.905932
vt 0.364029 0.925924
vt 0.362761 0.904440
vt 0.642096 0.849340
vt 0.630557 0.872768
vt 0.613050 0.866727
vt 0.619065 0.842117
vt 0.339429 0.897298
vt 0.345819 0.929231
vt 0.644045 0.835101
vt 0.628610 0.824752
vt 0.322777 0.902978
vt 0.302263 0.889502
vt 0.327594 0.858401
vt 0.336887 0.862392
vt 0.353369 0.879383
vt 0.283414 0.876591
vt 0.322872 0.844023
vt 0.292023 0.826771
vt 0.306452 0.826776
vt 0.343949 0.841676
vt 0.328963 0.825793
vt 0.348370 0.828894
vt 0.361425 0.839663
vt 0.348272 0.819492
vt 0.320538 0.810989
vt 0.384670 0.882856
vt 0.375447 0.863151
vt 0.417947 0.876828
vt 0.416260 0.863137
vt 0.389216 0.844048
vt 0.360272 0.795445
vt 0.334188 0.799297
vt 0.365408 0.809579
vt 0.393480 0.815533
vt 0.436100 0.857376
vt 0.440363 0.873183
vt 0.396329 0.801469
vt 0.429644 0.827825
vt 0.450451 0.849050
vt 0.429601 0.807763
vt 0.462381 0.870129
vt 0.463989 0.892769
vt 0.575064 0.935599
vt 0.596220 0.942899
vt 0.588621 0.959653
vt 0.569463 0.952286
vt 0.580830 0.922383
vt 0.600209 0.925214
vt 0.558615 0.912164
vt 0.553739 0.933525
vt 0.576969 0.982156
vt 0.554713 0.964894
vt 0.558423 0.978779
vt 0.547846 0.947793
vt 0.521397 0.925488
vt 0.531440 0.946636
vt 0.624117 0.804748
vt 0.647932 0.792970
vt 0.672657 0.824973
vt 0.662351 0.795588
vt 0.673396 0.807207
vt 0.660986 0.746513
vt 0.675769 0.721087
vt 0.686323 0.731122
vt 0.682337 0.757712
vt 0.650446 0.715339
vt 0.638271 0.674190
vt 0.657988 0.672456
vt 0.675189 0.698774
vt 0.536787 0.966652
vt 0.643801 0.643029
vt 0.619330 0.648360
vt 0.626754 0.686888
vt 0.522102 0.954564
vt 0.599815 0.647952
vt 0.598603 0.668954
vt 0.505558 0.935697
vt 0.574161 0.640875
vt 0.580748 0.662605
vt 0.535665 0.902962
vt 0.461578 0.908520
vt 0.598200 0.912187
vt 0.602656 0.875624
vt 0.634584 0.885944
vt 0.612124 0.899265
vt 0.578663 0.882392
vt 0.605063 0.839225
vt 0.595909 0.857277
vt 0.605983 0.822266
vt 0.587822 0.834156
vt 0.544301 0.889490
vt 0.566572 0.869973
vt 0.539380 0.882477
vt 0.594509 0.797506
vt 0.627497 0.778473
vt 0.630970 0.724903
vt 0.633325 0.749850
vt 0.619538 0.719023
vt 0.597027 0.702426
vt 0.614245 0.738543
vt 0.604329 0.764706
vt 0.583462 0.791219
vt 0.597831 0.731509
vt 0.580152 0.700674
vt 0.560302 0.670607
vt 0.553815 0.651153
vt 0.546646 0.676775
vt 0.555892 0.699836
vt 0.566689 0.828450
vt 0.550012 0.814921
vt 0.558265 0.824898
vt 0.546841 0.825384
vt 0.534850 0.838179
vt 0.519765 0.831077
vt 0.536161 0.863507
vt 0.527037 0.880006
vt 0.566169 0.742815
vt 0.569801 0.767990
vt 0.567452 0.790279
vt 0.550236 0.788622
vt 0.551603 0.778655
vt 0.519073 0.914827
vt 0.509038 0.923379
vt 0.498924 0.910176
vt 0.485518 0.923600
vt 0.523016 0.892196
vt 0.485095 0.898410
vt 0.487558 0.877019
vt 0.477537 0.893367
vt 0.522948 0.811050
vt 0.527944 0.792837
vt 0.481788 0.787437
vt 0.468755 0.797556
vt 0.450045 0.788664
vt 0.503765 0.845374
vt 0.496721 0.861180
vt 0.469941 0.902598
vt 0.529443 0.656552
vt 0.534426 0.677861
vt 0.433158 0.789912
vt 0.431045 0.759258
vt 0.457593 0.758099
vt 0.490430 0.775534
vt 0.532469 0.742818
vt 0.473839 0.732302
vt 0.534433 0.721701
vt 0.417233 0.781794
vt 0.419220 0.741220
vt 0.458047 0.723080
vt 0.406297 0.768358
vt 0.406350 0.758280
vn 0.071128 0.077568 0.994447
vn 0.052225 0.835769 0.546592
vn -0.261215 0.814838 0.517500
vn -0.524875 0.507599 0.683264
vn -0.191339 0.019147 0.981337
vn 0.337757 -0.133840 0.931669
vn 0.299695 0.612169 0.731732
vn 0.354871 -0.032879 0.934337
vn 0.165382 0.621070 0.766107
vn 0.381303 -0.253764 0.888939
vn 0.350547 -0.232734 0.907167
vn 0.308071 0.770873 0.557537
vn 0.441055 -0.146292 0.885477
vn 0.453969 -0.197387 0.868879
vn 0.662376 0.378982 0.646243
vn 0.917053 0.291827 0.271754
vn 0.772198 0.635374 -0.003251
vn 0.374786 0.913734 0.156924
vn -0.057034 0.967682 0.245640
vn 0.965776 -0.247915 0.076249
vn 0.792856 0.536520 -0.289008
vn 0.950032 -0.182498 -0.253248
vn 0.868316 0.414407 -0.272569
vn -0.145482 0.938838 -0.312118
vn 0.273237 0.628061 -0.728616
vn 0.060313 0.738346 -0.671720
vn -0.420148 0.894044 -0.155436
vn 0.136193 0.632706 -0.762322
vn 0.305002 0.107988 -0.946210
vn -0.101592 0.991054 0.086555
vn -0.286718 0.952155 -0.105796
vn -0.176908 0.974490 0.138104
vn -0.175806 0.928978 -0.325719
vn -0.262278 0.934950 -0.238910
vn -0.136478 0.011192 -0.990580
vn 0.289734 -0.106499 -0.951164
vn -0.391540 0.760922 -0.517392
vn -0.471037 0.693576 -0.545047
vn -0.454502 0.813729 -0.362316
vn -0.697845 0.676379 0.235634
vn -0.413339 0.013422 -0.910478
vn -0.518901 0.659242 -0.544189
vn -0.933738 0.108397 -0.341151
vn -0.636239 0.149418 -0.756884
vn -0.987064 0.116631 0.110012
vn -0.840976 0.143588 0.521672
vn -0.922848 -0.369728 -0.107950
vn -0.944632 -0.177373 -0.276058
vn -0.806541 -0.534934 0.251671
vn -0.925756 -0.130900 0.354741
vn -0.998493 -0.047394 0.027673
vn -0.964483 -0.010551 -0.263935
vn -0.988417 -0.033428 -0.148036
vn -0.914196 0.398381 0.074417
vn -0.964041 0.255907 -0.071668
vn 0.749407 -0.268721 0.605127
vn 0.807386 -0.562294 0.178757
vn 0.623799 -0.577343 -0.526830
vn 0.147089 -0.306999 -0.940275
vn -0.346343 0.041533 -0.937188
vn -0.646494 0.107657 -0.755285
vn -0.156766 -0.011471 -0.987569
vn -0.756597 0.239474 -0.608451
vn -0.342713 -0.062780 -0.937340
vn -0.867972 -0.018012 -0.496286
vn -0.431833 -0.254699 -0.865245
vn -0.889094 0.252061 0.382070
vn -0.553430 -0.206054 0.807005
vn 0.055763 -0.187303 0.980718
vn -0.478102 -0.200789 0.855045
vn 0.424083 0.230259 0.875862
vn 0.224277 0.200871 0.953599
vn 0.478606 0.108773 0.871266
vn 0.367447 0.353440 0.860269
vn -0.827474 0.168817 0.535526
vn -0.219854 0.106501 0.969702
vn -0.720070 0.140604 0.679506
vn 0.908796 -0.094247 0.406458
vn 0.872427 -0.477598 -0.103786
vn 0.450565 -0.363582 -0.815352
vn 0.764159 -0.512670 -0.391446
vn 0.290658 -0.366453 -0.883872
vn 0.149416 -0.295234 -0.943669
vn 0.732557 -0.470291 -0.492125
vn 0.938234 -0.097345 -0.332025
vn 0.942557 0.137458 0.304452
vn 0.626223 -0.185191 -0.757330
vn 0.167986 -0.229488 -0.958705
vn -0.362454 -0.310515 -0.878753
vn -0.709842 -0.326470 -0.624133
vn -0.322990 -0.388069 -0.863180
vn 0.084851 -0.294301 -0.951939
vn 0.313641 0.155309 0.936754
vn 0.605553 -0.217793 0.765422
vn 0.556348 0.173158 0.812708
vn -0.093181 -0.252564 0.963083
vn -0.242883 -0.158458 0.957026
vn -0.225111 -0.460165 0.858821
vn -0.314754 -0.168003 0.934187
vn -0.664910 -0.202696 0.718895
vn 0.698089 -0.210738 -0.684296
vn 0.949364 -0.133845 -0.284244
vn 0.927996 0.158490 0.337201
vn 0.697960 -0.588342 0.408296
vn 0.770859 -0.636415 0.027418
vn -0.899218 0.307334 0.311372
vn -0.992556 0.072072 -0.098178
vn -0.979754 -0.148586 0.134177
vn -0.855727 -0.008326 0.517360
vn -0.964414 -0.215479 0.153214
vn -0.722146 -0.511411 0.465794
vn -0.234163 -0.971886 0.024616
vn 0.139201 -0.850803 0.506712
vn 0.315331 -0.869127 0.381032
vn -0.195367 -0.837891 0.509677
vn -0.439605 -0.684942 0.581035
vn -0.546307 -0.705801 -0.450991
vn -0.194514 -0.846238 -0.496030
vn -0.064825 -0.993774 0.090617
vn -0.040377 -0.985283 0.166093
vn 0.426091 -0.903446 -0.047249
vn 0.178989 -0.757408 -0.627931
s 1
g rock2_LowPolyMesh
usemtl initialShadingGroup
f 1/1/1 16/2/2 15/3/3
f 1/1/1 15/3/3 17/4/4 18/5/5
f 2/6/6 3/7/7 16/2/2 1/1/1
f 5/8/8 4/9/9 3/7/7 2/6/6
f 5/10/8 2/11/6 23/12/10 26/13/11
f 8/14/12 4/9/9 5/8/8 6/15/13
f 6/16/13 5/10/8 26/13/11 27/17/14
f 6/15/13 7/18/15 8/14/12
f 7/18/15 12/19/16 11/20/17 10/21/18
f 8/14/12 7/18/15 10/21/18 9/22/19
f 11/20/17 12/19/16 32/23/20 36/24/21
f 32/23/20 34/25/22 35/26/23 36/24/21
f 37/27/24 10/21/18 11/20/17 36/24/21
f 9/22/19 10/21/18 37/27/24
f 37/27/24 36/24/21 44/28/25 45/29/26
f 40/30/27 37/27/24 45/29/26
f 40/30/27 45/29/26 48/31/28
f 41/32/29 44/28/25 36/24/21 35/26/23
f 35/26/23 34/25/22 41/32/29
f 48/31/28 45/29/26 44/28/25 41/32/29
f 13/33/30 4/9/9 8/14/12 9/22/19
f 38/34/31 9/22/19 37/27/24 40/30/27
f 3/7/7 4/9/9 13/33/30
f 13/33/30 9/22/19 38/34/31
f 16/2/2 3/7/7 13/33/30
f 15/3/3 16/2/2 13/33/30 14/35/32
f 50/36/33 14/35/32 13/33/30
f 38/34/31 40/30/27 39/37/34
f 50/36/33 13/33/30 38/34/31 39/37/34
f 47/38/35 48/31/28 41/32/29 42/39/36
f 39/37/34 40/30/27 46/40/37 49/41/38
f 14/35/32 50/36/33 51/42/39 21/43/40
f 21/43/40 17/4/4 15/3/3 14/35/32
f 47/38/35 46/40/37 40/30/27 48/31/28
f 49/41/38 46/40/37 47/38/35 53/44/41
f 52/45/42 39/37/34 49/41/38
f 52/45/42 51/42/39 50/36/33 39/37/34
f 55/46/43 51/42/39 52/45/42
f 52/45/42 49/41/38 53/44/41 54/47/44
f 56/48/45 21/43/40 51/42/39 55/46/43
f 20/49/46 17/4/4 21/43/40 56/48/45
f 62/50/47 56/51/45 55/52/43 57/53/48
f 72/54/49 20/55/46 56/51/45 62/50/47
f 71/56/50 72/54/49 62/50/47 63/57/51
f 57/53/48 55/52/43 52/58/42
f 58/59/52 57/53/48 52/58/42 54/60/44
f 64/61/53 57/53/48 58/59/52
f 64/61/53 63/57/51 62/50/47 57/53/48
f 66/62/54 63/57/51 64/61/53 65/63/55
f 6/16/13 27/17/14 28/64/56 33/65/57
f 33/65/57 7/66/15 6/16/13
f 33/65/57 32/67/20 12/68/16 7/66/15
f 43/69/58 42/70/36 41/71/29 34/72/22
f 43/69/58 34/72/22 32/67/20 33/65/57
f 61/73/59 60/74/60 53/75/41 47/76/35
f 47/76/35 42/70/36 43/69/58 61/73/59
f 59/77/61 58/59/52 54/60/44
f 65/63/55 64/61/53 58/59/52 59/77/61
f 54/78/44 53/75/41 60/74/60 59/79/61
f 59/79/61 60/74/60 61/73/59 78/80/62
f 73/81/63 65/63/55 59/77/61
f 73/82/63 59/79/61 78/80/62 79/83/64
f 70/84/65 66/62/54 65/63/55 73/81/63
f 70/85/65 73/82/63 79/83/64 82/86/66
f 71/56/50 63/57/51 66/62/54 67/87/67
f 19/88/68 18/5/5 17/4/4 20/49/46
f 19/89/68 20/55/46 72/54/49
f 22/90/69 23/12/10 2/11/6
f 2/11/6 1/91/1 18/92/5 22/90/69
f 19/89/68 72/54/49 71/56/50 95/93/70
f 31/94/71 26/13/11 23/12/10 25/95/72
f 30/96/73 27/17/14 26/13/11 31/94/71
f 30/96/73 31/94/71 25/95/72 24/97/74
f 71/56/50 67/87/67 94/98/75 95/93/70
f 22/90/69 18/92/5 19/89/68 95/93/70
f 25/95/72 23/12/10 22/90/69 95/93/70
f 97/99/76 25/95/72 95/93/70
f 97/99/76 95/93/70 94/98/75 93/100/77
f 29/101/78 28/64/56 27/17/14 30/96/73
f 75/102/79 33/65/57 28/64/56 29/101/78
f 29/101/78 30/96/73 24/97/74
f 77/103/80 61/73/59 43/69/58 74/104/81
f 43/69/58 33/65/57 75/102/79 74/104/81
f 81/105/82 78/80/62 61/73/59 77/103/80
f 82/86/66 79/83/64 80/106/83
f 79/83/64 78/80/62 81/105/82 80/106/83
f 81/105/82 77/103/80 74/104/81 104/107/84
f 76/108/85 75/102/79 29/101/78 103/109/86
f 104/107/84 74/104/81 75/102/79 76/108/85
f 105/110/87 80/106/83 81/105/82 104/107/84
f 105/110/87 104/107/84 76/108/85
f 82/86/66 80/106/83 84/111/88 83/112/89
f 89/113/90 70/85/65 82/86/66 83/112/89
f 85/114/91 83/112/89 84/111/88 109/115/92
f 24/97/74 25/95/72 97/99/76 96/116/93
f 103/109/86 29/101/78 24/97/74 96/116/93
f 101/117/94 100/118/95 99/119/96
f 99/119/96 100/118/95 96/116/93 112/120/97
f 99/119/96 112/120/97 114/121/98
f 98/122/99 97/99/76 93/100/77
f 112/120/97 96/116/93 97/99/76 98/122/99
f 98/122/99 93/100/77 92/123/100
f 84/111/88 80/106/83 105/110/87 106/124/101
f 106/124/101 105/110/87 76/108/85 107/125/102
f 107/125/102 76/108/85 103/109/86 102/126/103
f 103/109/86 96/116/93 100/118/95 101/117/94
f 101/117/94 102/126/103 103/109/86
f 117/127/104 102/126/103 101/117/94
f 118/128/105 107/125/102 102/126/103 117/127/104
f 68/129/106 67/87/67 66/62/54
f 66/62/54 70/84/65 69/130/107 68/129/106
f 88/131/108 69/130/107 70/84/65 89/132/90
f 91/133/109 94/98/75 67/87/67 68/129/106
f 91/133/109 92/123/100 93/100/77 94/98/75
f 91/133/109 68/129/106 69/130/107 88/131/108
f 91/133/109 88/131/108 90/134/110 110/135/111
f 110/135/111 90/134/110 120/136/112
f 113/137/113 101/117/94 99/119/96 114/121/98
f 116/138/114 117/127/104 101/117/94 113/137/113
f 113/139/113 114/140/98 115/141/115
f 115/142/115 114/121/98 112/120/97 98/122/99
f 92/123/100 91/133/109 110/135/111 111/143/116
f 115/142/115 98/122/99 92/123/100 111/143/116
f 120/136/112 90/134/110 87/144/117
f 87/144/117 90/134/110 88/131/108 89/132/90
f 87/145/117 89/113/90 83/112/89 85/114/91
f 87/145/117 85/114/91 86/146/118
f 115/141/115 111/147/116 121/148/119 122/149/120
f 122/149/120 116/150/114 113/139/113 115/141/115
f 106/124/101 107/125/102 118/128/105 119/151/121
f 119/152/121 116/150/114 122/149/120
f 119/151/121 118/128/105 117/127/104 116/138/114
f 86/146/118 85/114/91 109/115/92 108/153/122
f 111/147/116 110/154/111 121/148/119
f 108/153/122 109/115/92 84/111/88 106/124/101
f 108/153/122 106/124/101 119/151/121
f 121/148/119 86/155/118 108/156/122
f 108/156/122 119/152/121 122/149/120 121/148/119
f 121/148/119 110/154/111 120/157/112 87/158/117
f 121/148/119 87/158/117 86/155/118
